<?xml version="1.0" encoding="UTF-8"?>
<svg data-bbox="220.891 281.859 583.897 462.498" viewBox="0 0 1024 1024" xmlns="http://www.w3.org/2000/svg" data-type="shape">
    <g>
        <path d="M442.706 572.693c1.976-9.345 4.203-18.244 5.642-27.269 1.515-9.512 7.365-14.934 15.563-18.59 1.514-.675 3.103-1.25 4.714-1.63 16.096-3.8 25.186-14.801 30.278-29.707 4.985-14.593 6.723-29.787 7.789-45.087 1.29-18.523 2.684-37.038 4.02-55.366 2.963-.748 4.473.868 6.035 1.952 52.382 36.335 82.979 84.966 84.664 149.96.607 23.4-.33 46.605-6.767 69.317-12.45 43.931-39.869 75.242-80.155 95.972-26.668 13.722-55.26 20.987-84.548 26.053-37.269 6.445-74.894 6.504-112.523 5.709-13.63-.288-27.236-1.66-40.85-2.583-1.08-.073-2.136-.513-4.07-1 5.482-5.985 10.309-11.615 15.518-16.866 11.965-12.06 23.31-24.714 35.802-36.278 17.31-16.025 37.282-24.686 61.048-24.206 32.09.647 63.364-3.806 93.316-15.732 34.132-13.59 59.827-35.875 71.866-71.594 5.441-16.144 6.535-32.865 5.279-49.83-1.185-16.002-3.756-31.703-8.78-46.958-.538-1.633-.5-3.68-2.952-5.084-.8 6.989-1.486 13.667-2.343 20.324-1.618 12.57-3.94 24.965-9.19 36.64-5.46 12.136-14.74 18.942-27.938 20.548-2.957.36-5.85 1.236-8.807 1.596-12.543 1.527-19.351 8.483-21.932 20.91-3.728 17.955-16.244 26.785-33.616 29.489-23.385 3.64-45.646-1.604-67.592-8.992-.553-.186-1.017-.642-2.774-1.788 5.828-.853 10.278.24 14.675.644 10.594.975 21.141 2.791 31.749 3.205 10.884.425 18.488-5.665 23.486-15.015 1.401-2.623 2.214-5.56 3.393-8.744"/>
        <path d="M365.698 437.033c1.587-12.804 3.13-25.16 4.748-37.506.473-3.612-2.303-4.939-4.487-6.585-20.353-15.345-40.743-30.64-61.13-45.941-24.119-18.102-48.246-36.193-72.368-54.29-.8-.6-1.587-1.217-2.369-1.84-2.174-1.735-3.37-3.914-1.87-6.531 1.607-2.804 4.193-2.992 6.962-1.748 8.507 3.824 17 7.68 25.511 11.493 46.21 20.7 92.271 41.738 138.694 61.947 25.025 10.894 29.696 21.093 27.509 48.183-.946 11.706-3.755 23.259-5.642 34.893a32440 32440 0 0 0-11.89 73.832c-2.095 13.108-4.068 26.237-6.174 39.344-1.284 7.99-5.213 11.358-13.411 10.772-9.289-.663-18.56-1.713-27.795-2.928-6.012-.791-9.564-5.24-9.052-11.747.782-9.946 2.12-19.848 3.27-29.764 1.8-15.51 3.645-31.015 5.46-46.524a8868 8868 0 0 0 4.034-35.06"/>
        <path d="M486.06 328.015c18.964-14.088 39.828-22.357 63.151-22.774 22.557-.403 42.794 7.139 60.664 20.875 9.517 7.316 19.325 14.172 29.563 20.46 18.319 11.251 36.867 13.707 56.088 2.376 1.107-.653 2.412-.97 3.826-1.523.129.72.417 1.263.257 1.585-10.361 20.89-24.417 37.937-48.252 43.74-18.064 4.398-35.291.23-52.023-6.804-14.066-5.914-26.935-13.872-39.106-22.97-17.873-13.362-38.067-16.458-59.63-14.023-17.685 1.996-34.462 7.193-50.7 14.263-2.602 1.132-4.347.567-6.197-1.305-13.114-13.272-26.286-26.487-39.407-39.753-1.8-1.82-3.298-3.83-1.877-6.652 1.497-2.971 4.17-3.284 6.855-2.684 22.09 4.94 44.449 9.184 63.549 22.536 1.917 1.34 3.245.879 4.824-.5 2.631-2.3 5.41-4.432 8.416-6.847"/>
        <path d="M786.033 577.875c6.615-.328 12.3-2.838 18.755-4.5-.473 3.329-2.549 5.001-4.255 6.802-34.705 36.618-90.139 28.87-113.61-15.882-7.45-14.204-10.946-29.46-12.358-45.371-1.173-13.217-2.764-26.383-6.024-39.335-6.303-25.042-22.944-41.039-44.907-52.583-5.244-2.757-10.538-5.417-16.293-8.37 4.255-3.11 8.62-1.952 12.539-2.312 20.33-1.867 40.225-.06 58.959 8.848 18.81 8.944 30.11 24.621 38.312 43.068 8.86 19.929 12.475 41.274 17.256 62.334 3.418 15.058 8.25 29.635 21.157 39.692 8.844 6.891 18.954 9.304 30.469 7.61"/>
        <path d="M691.325 634.677c13.151 11.83 20.44 27.393 29.698 41.573 9.544 14.621 21.536 26.593 37.798 33.838 6.8 3.028 14.115 3.505 22.373 5.066-5.604 4.159-11.398 4.905-16.876 5.778-22.487 3.585-43.411-.737-62.112-13.954-14.689-10.381-23.556-25.143-29.674-41.692-5.767-15.6-8.172-31.858-8.83-48.41-.046-1.134-.229-2.342 1.389-4.18 9.394 6.236 17.713 13.952 26.234 21.98"/>
        <path d="M242.249 432.123c13.034-1.985 20.128-9.046 22.104-21.91.872-5.673 3.48-11.088 5.392-16.589.518-1.491.61-3.322 2.477-4.188 2.073 1.285 2.163 3.624 2.84 5.545 3.2 9.101 6.367 18.218 9.3 27.407 1.028 3.218 2.904 4.86 6.046 5.879 10.126 3.282 20.17 6.819 30.251 10.242.931.317 1.984.383 2.621 1.871-1.05 1.38-2.834 1.633-4.467 2.182-9.621 3.236-19.204 6.59-28.869 9.69-3.011.965-4.633 2.65-5.6 5.64-3.175 9.812-6.601 19.542-9.907 29.312-.472 1.398-.607 2.945-2.019 3.925-2.187-.692-2.117-2.826-2.661-4.424-3.219-9.454-6.455-18.907-9.375-28.455-.997-3.259-2.778-4.94-5.931-5.957-9.658-3.117-19.239-6.473-28.855-9.72-1.538-.52-3.232-.709-4.705-2.701 6.83-3.364 14.094-5.02 21.358-7.75"/>
        <path d="M454.6 416.963c.511-3.238 2.091-4.914 4.988-5.15 2.425-.199 4.147.95 5.296 3.02 6.402 11.54 10.72 23.536 8.553 37.084-.726 4.544-2.672 8.508-4.818 12.473-5.089 9.397-11.35 17.979-18.023 26.281-.707.88-1.32 1.961-3.175 1.883-1.824-5.626.16-11.312.644-16.87 1.58-18.162 3.723-36.274 5.68-54.402.142-1.313.528-2.599.856-4.32"/>
    </g>
</svg>
